<?xml version="1.0" standalone="no"?>
<!DOCTYPE svg PUBLIC "-//W3C//DTD SVG 20010904//EN"
 "http://www.w3.org/TR/2001/REC-SVG-20010904/DTD/svg10.dtd">
<svg version="1.0" xmlns="http://www.w3.org/2000/svg"
 width="225.000000pt" height="225.000000pt" viewBox="0 0 225.000000 225.000000"
 preserveAspectRatio="xMidYMid meet">
<metadata>
Created by potrace 1.10, written by Peter Selinger 2001-2011
</metadata>
<g transform="translate(0.000000,225.000000) scale(0.100000,-0.100000)"
fill="#000000" stroke="none">
<path d="M956 1623 c-9 -39 -48 -73 -85 -74 -23 -1 -22 -2 9 -11 45 -12 62
-29 76 -76 8 -26 12 -30 13 -15 2 44 23 72 65 86 l41 14 -36 7 c-43 8 -59 24
-69 69 l-7 32 -7 -32z"/>
<path d="M761 1478 c-19 -90 -59 -128 -151 -143 l-45 -8 57 -13 c95 -22 118
-47 144 -159 6 -29 7 -28 19 22 21 91 47 116 140 138 l50 11 -53 12 c-94 21
-118 46 -138 141 l-11 56 -12 -57z"/>
<path d="M1027 1383 c-3 -5 -15 -33 -26 -62 -18 -47 -19 -61 -9 -100 26 -107
65 -143 178 -167 44 -10 77 -20 73 -24 -5 -3 -37 -12 -73 -19 -113 -22 -148
-53 -175 -157 -26 -100 -34 -94 119 -94 l133 0 30 -82 29 -83 87 -3 c48 -1 87
-1 87 0 0 2 -67 181 -149 398 l-148 395 -76 3 c-41 2 -78 -1 -80 -5z"/>
<path d="M1520 990 l0 -400 80 0 80 0 0 400 0 400 -80 0 -80 0 0 -400z"/>
<path d="M865 953 c-4 -10 -33 -88 -65 -173 -32 -85 -61 -163 -65 -172 -6 -16
1 -18 82 -18 l89 0 28 86 c26 80 27 90 16 148 -12 63 -46 136 -66 143 -6 2
-15 -4 -19 -14z"/>
</g>
</svg>
